# xmcd CD database file
#
# Track frame offsets:
#	150
#	15062
#	42562
#	67750
#	107035
#	147947
#	176120
#	192857
#	230682
#	254710
#	279120
#
# Disc length: 4151 seconds
#
# Revision: 1
# Processed by: cddbd v1.4PL0 Copyright (c) Steve Scherf et al.
# Submitted via: CDex 1.50
#
DISCID=9410350b
DTITLE=Doug Wamble - Country Libations
DYEAR=2003
DGENRE=Jazz
TTITLE0=Libation, No. 1 - Back of Hymnal
TTITLE1=Libation, No. 2 - Trouble, Lord
TTITLE2=Baby, if You're Lyin'
TTITLE3=Libation, No. 4 - Ain't Quite Four This Morning
TTITLE4=Libation, No. 5 - Ranura del Campo
TTITLE5=Dim Tangy Tennessee Twang
TTITLE6=Libation, No. 7 - Along the Way
TTITLE7=The Sweet Magnolia Tree
TTITLE8=Walking on the Moon
TTITLE9=If I Fall
TTITLE10=Back to the River
EXTD=YEAR: 2003
EXTT0=
EXTT1=
EXTT2=
EXTT3=
EXTT4=
EXTT5=
EXTT6=
EXTT7=
EXTT8=
EXTT9=
EXTT10=
PLAYORDER=
